<svg xmlns="http://www.w3.org/2000/svg" viewBox="0 0 100 100">
  <defs>
    <linearGradient id="bg" x1="0%" y1="0%" x2="100%" y2="100%">
      <stop offset="0%" style="stop-color:#1a1a2e"/>
      <stop offset="100%" style="stop-color:#16213e"/>
    </linearGradient>
    <linearGradient id="gold" x1="0%" y1="0%" x2="100%" y2="100%">
      <stop offset="0%" style="stop-color:#ffd700"/>
      <stop offset="100%" style="stop-color:#ffb700"/>
    </linearGradient>
  </defs>
  <!-- Background circle -->
  <circle cx="50" cy="50" r="48" fill="url(#bg)" stroke="url(#gold)" stroke-width="3"/>
  <!-- Casino chip grooves -->
  <circle cx="50" cy="50" r="40" fill="none" stroke="url(#gold)" stroke-width="2" stroke-dasharray="8 4"/>
  <!-- Inner circle -->
  <circle cx="50" cy="50" r="32" fill="url(#bg)" stroke="url(#gold)" stroke-width="2"/>
  <!-- D letter -->
  <text x="35" y="62" font-family="Arial, sans-serif" font-size="32" font-weight="bold" fill="url(#gold)">D</text>
  <!-- Spade symbol -->
  <path d="M68 35 C68 30 75 25 75 35 C75 42 68 45 68 50 L72 50 C72 45 79 42 79 35 C79 22 68 22 68 35 Z" fill="#ffd700" transform="scale(0.6) translate(45, 30)"/>
  <!-- Small diamond decorations -->
  <path d="M50 18 L54 25 L50 32 L46 25 Z" fill="#d32f2f"/>
  <path d="M50 68 L54 75 L50 82 L46 75 Z" fill="#d32f2f"/>
  <path d="M18 50 L25 46 L32 50 L25 54 Z" fill="#d32f2f"/>
  <path d="M68 50 L75 46 L82 50 L75 54 Z" fill="#d32f2f"/>
</svg>
